<?xml version="1.0" encoding="UTF-8"?>
<svg version="1.1" xmlns="http://www.w3.org/2000/svg" width="103" height="104">
<path d="M0 0 C33.99 0 67.98 0 103 0 C103 34.32 103 68.64 103 104 C69.01 104 35.02 104 0 104 C0 69.68 0 35.36 0 0 Z " fill="#29311A" transform="translate(0,0)"/>
<path d="M0 0 C1.20560326 -0.00574036 1.20560326 -0.00574036 2.43556213 -0.01159668 C4.1325913 -0.01431418 5.82966246 -0.00696418 7.52661133 0.00976562 C10.11700447 0.03115174 12.7046156 0.00997529 15.29492188 -0.015625 C16.94662068 -0.01298114 18.59831776 -0.00785497 20.25 0 C21.02097519 -0.00809692 21.79195038 -0.01619385 22.58628845 -0.02453613 C26.13689379 0.03700281 28.53548757 0.4473183 31.67749023 2.13867188 C34.35453593 5.31906318 34.33623611 7.21587682 34.35546875 11.34375 C34.36025238 11.99448486 34.36503601 12.64521973 34.3699646 13.31567383 C34.37335722 14.68736192 34.36419869 16.05913157 34.34326172 17.43066406 C34.31647428 19.52592854 34.34301752 21.61583885 34.375 23.7109375 C34.37169577 25.04688678 34.36528924 26.38283273 34.35546875 27.71875 C34.34700928 29.53439453 34.34700928 29.53439453 34.33837891 31.38671875 C33.69140625 34.53125 33.69140625 34.53125 31.57739258 36.92993164 C28.07063612 38.87569051 25.84850346 39.00129987 21.8515625 38.96484375 C20.54123047 38.97451172 19.23089844 38.98417969 17.88085938 38.99414062 C15.81602372 38.98555248 13.75150075 38.96872415 11.68676758 38.9465332 C2.69377003 38.44877857 2.69377003 38.44877857 -5.10546875 42.07421875 C-6.19601563 43.29044922 -6.19601563 43.29044922 -7.30859375 44.53125 C-9.66419503 44.4039202 -10.65237757 44.18746618 -12.30859375 42.53125 C-12.44690241 39.76641222 -12.52175257 37.02835444 -12.546875 34.26171875 C-12.55898262 33.01289665 -12.55898262 33.01289665 -12.57133484 31.73884583 C-12.58519228 29.97264702 -12.59590698 28.20642125 -12.60375977 26.44018555 C-12.6209571 23.74020444 -12.66482479 21.04145255 -12.70898438 18.34179688 C-12.7191123 16.62761319 -12.72762809 14.91341907 -12.734375 13.19921875 C-12.75188309 12.39179733 -12.76939117 11.58437592 -12.78742981 10.75248718 C-12.7742743 7.34729317 -12.5714958 4.96878135 -10.80126953 2.02270508 C-7.2731713 -0.08827946 -3.99478566 -0.04184411 0 0 Z " fill="#2F381D" transform="translate(41.30859375,29.46875)"/>
<path d="M0 0 C28.71 0 57.42 0 87 0 C87 34.32 87 68.64 87 104 C53.01 104 19.02 104 -16 104 C-16.103125 89.789375 -16.20625 75.57875 -16.3125 60.9375 C-16.35802002 56.45921631 -16.40354004 51.98093262 -16.45043945 47.36694336 C-16.47302246 41.87609863 -16.47302246 41.87609863 -16.47721863 39.30128479 C-16.48487014 37.5123624 -16.50240113 35.72346497 -16.52787781 33.93470764 C-16.56464129 31.21635517 -16.56952501 28.49957079 -16.56762695 25.78100586 C-16.59461277 24.5962147 -16.59461277 24.5962147 -16.62214375 23.38748837 C-16.56692946 17.45406769 -14.79264174 14.54156608 -11 10 C-10.67 10.66 -10.34 11.32 -10 12 C-10.30403748 12.89864777 -10.60807495 13.79729553 -10.92132568 14.72317505 C-12.05643852 18.1714504 -12.25355388 20.81172276 -12.25878906 24.42919922 C-12.26509338 25.68425262 -12.27139771 26.93930603 -12.27789307 28.23239136 C-12.27431213 29.58982484 -12.27020989 30.94725704 -12.265625 32.3046875 C-12.2669742 33.71184354 -12.26891686 35.11899911 -12.27142334 36.52615356 C-12.27436453 39.46979223 -12.27011076 42.41330914 -12.26074219 45.35693359 C-12.24936923 49.11143167 -12.25589969 52.86564306 -12.26788712 56.62013054 C-12.27515097 59.52509681 -12.27279677 62.42999635 -12.26763153 65.33496475 C-12.26630642 66.71831421 -12.26790239 68.10166991 -12.27259064 69.48501205 C-12.4425086 81.94621114 -12.4425086 81.94621114 -7.9375 93.3125 C-0.54117723 100.07934849 8.8556576 99.43041229 18.37890625 99.36328125 C19.75935363 99.36276131 21.13980176 99.36328417 22.52024841 99.36479187 C25.39894819 99.36470267 28.27736489 99.3543796 31.15600586 99.33618164 C34.82636365 99.31347483 38.49630972 99.31295992 42.16671848 99.31969929 C45.01250297 99.32305698 47.85819537 99.31637583 50.70396233 99.30657005 C52.70901097 99.30090803 54.71407532 99.30214654 56.71913147 99.30354309 C68.08027604 99.26571226 68.08027604 99.26571226 78.3125 94.8125 C85.20641755 87.59793513 84.44520989 79.67084527 84.3984375 70.1953125 C84.40046196 68.74714003 84.40337649 67.29896857 84.40713501 65.85079956 C84.41154372 62.82312261 84.4051765 59.79571222 84.39111328 56.76806641 C84.37405268 52.90932453 84.3838515 49.05121024 84.40183067 45.19249153 C84.4127344 42.20339333 84.40919169 39.21444087 84.4014473 36.22533798 C84.39946183 34.80373941 84.40184568 33.38212711 84.40888596 31.96054459 C84.76820382 19.45080859 84.76820382 19.45080859 79.65438843 8.42630005 C74.59704459 3.91651977 69.9264004 2.75017662 63.30126953 2.74121094 C62.64854065 2.7377063 61.99581177 2.73420166 61.32330322 2.73059082 C59.17636314 2.7218251 57.02975565 2.72760557 54.8828125 2.734375 C53.38215065 2.73302654 51.88148922 2.73108449 50.38082886 2.72857666 C47.23870679 2.72563211 44.09669864 2.72990024 40.95458984 2.73925781 C36.94101921 2.7506323 32.92771669 2.74410145 28.91415596 2.73211288 C25.81535857 2.72485934 22.71662391 2.72719854 19.61782455 2.73236847 C18.13875166 2.73369634 16.65967294 2.73208769 15.18060684 2.72740936 C13.10609277 2.72228859 11.03200234 2.73013209 8.95751953 2.74121094 C7.78013214 2.74280212 6.60274475 2.74439331 5.38967896 2.74603271 C1.63048613 3.02768535 -1.42116644 3.85129844 -5 5 C-3.625 3.5 -3.625 3.5 -2 2 C-1.34 2 -0.68 2 0 2 C0 1.34 0 0.68 0 0 Z " fill="#323C20" transform="translate(16,0)"/>
<path d="M0 0 C1.20560326 -0.00574036 1.20560326 -0.00574036 2.43556213 -0.01159668 C4.1325913 -0.01431418 5.82966246 -0.00696418 7.52661133 0.00976562 C10.11700447 0.03115174 12.7046156 0.00997529 15.29492188 -0.015625 C16.94662068 -0.01298114 18.59831776 -0.00785497 20.25 0 C21.02097519 -0.00809692 21.79195038 -0.01619385 22.58628845 -0.02453613 C26.13689379 0.03700281 28.53548757 0.4473183 31.67749023 2.13867188 C34.35453593 5.31906318 34.33623611 7.21587682 34.35546875 11.34375 C34.36025238 11.99448486 34.36503601 12.64521973 34.3699646 13.31567383 C34.37335722 14.68736192 34.36419869 16.05913157 34.34326172 17.43066406 C34.31647428 19.52592854 34.34301752 21.61583885 34.375 23.7109375 C34.37169577 25.04688678 34.36528924 26.38283273 34.35546875 27.71875 C34.34700928 29.53439453 34.34700928 29.53439453 34.33837891 31.38671875 C33.69140625 34.53125 33.69140625 34.53125 31.57739258 36.92993164 C28.07063612 38.87569051 25.84850346 39.00129987 21.8515625 38.96484375 C20.54123047 38.97451172 19.23089844 38.98417969 17.88085938 38.99414062 C15.81602372 38.98555248 13.75150075 38.96872415 11.68676758 38.9465332 C2.69377003 38.44877857 2.69377003 38.44877857 -5.10546875 42.07421875 C-6.19601563 43.29044922 -6.19601563 43.29044922 -7.30859375 44.53125 C-9.66419503 44.4039202 -10.65237757 44.18746618 -12.30859375 42.53125 C-12.44690241 39.76641222 -12.52175257 37.02835444 -12.546875 34.26171875 C-12.55898262 33.01289665 -12.55898262 33.01289665 -12.57133484 31.73884583 C-12.58519228 29.97264702 -12.59590698 28.20642125 -12.60375977 26.44018555 C-12.6209571 23.74020444 -12.66482479 21.04145255 -12.70898438 18.34179688 C-12.7191123 16.62761319 -12.72762809 14.91341907 -12.734375 13.19921875 C-12.75188309 12.39179733 -12.76939117 11.58437592 -12.78742981 10.75248718 C-12.7742743 7.34729317 -12.5714958 4.96878135 -10.80126953 2.02270508 C-7.2731713 -0.08827946 -3.99478566 -0.04184411 0 0 Z M-8.30859375 5.53125 C-8.39707118 8.05219076 -8.42386676 10.54555893 -8.40625 13.06640625 C-8.40483505 13.81965683 -8.4034201 14.57290741 -8.40196228 15.34898376 C-8.39634751 17.7639456 -8.38379258 20.17881601 -8.37109375 22.59375 C-8.36608065 24.22721221 -8.36151741 25.86067586 -8.35742188 27.49414062 C-8.34637329 31.50654585 -8.32909881 35.51888241 -8.30859375 39.53125 C-7.63207764 38.88309326 -6.95556152 38.23493652 -6.25854492 37.56713867 C-2.61483069 35.05245416 -0.50498727 35.00791095 3.890625 34.95703125 C4.56688431 34.94286667 5.24314362 34.92870209 5.93989563 34.91410828 C8.08639689 34.87239267 10.23205768 34.85700066 12.37890625 34.84375 C14.53607683 34.81467373 16.69303665 34.78014785 18.85005188 34.74125671 C20.79922553 34.70856425 22.74862768 34.69047066 24.69799805 34.6730957 C27.61693488 34.7369759 27.61693488 34.7369759 29.69140625 33.53125 C29.71606506 29.56194011 29.73424648 25.59265966 29.74633789 21.62329102 C29.75137682 20.27204614 29.75820802 18.92080674 29.7668457 17.56958008 C29.77893044 15.63104566 29.78410453 13.692472 29.7890625 11.75390625 C29.79429932 10.58609619 29.79953613 9.41828613 29.80493164 8.21508789 C29.9980212 5.61233449 29.9980212 5.61233449 28.69140625 4.53125 C26.03684432 4.43029436 23.40885449 4.39154002 20.75390625 4.3984375 C19.95863525 4.39748077 19.16336426 4.39652405 18.34399414 4.39553833 C16.65934165 4.39485657 14.97468654 4.39671057 13.29003906 4.40087891 C10.70241428 4.40622725 8.11496309 4.40093381 5.52734375 4.39453125 C3.89453086 4.39519203 2.26171809 4.3964732 0.62890625 4.3984375 C-0.15025146 4.39641327 -0.92940918 4.39438904 -1.73217773 4.39230347 C-5.31653575 4.0728542 -5.31653575 4.0728542 -8.30859375 5.53125 Z " fill="#C3EA7D" transform="translate(41.30859375,29.46875)"/>
<path d="M0 0 C28.71 0 57.42 0 87 0 C87 29.04 87 58.08 87 88 C85.515 88.495 85.515 88.495 84 89 C83.731875 89.7425 83.46375 90.485 83.1875 91.25 C81.36182434 95.47788049 78.05429054 97.68776987 74.23822021 100.12538147 C71.12574235 101.34162945 68.40218926 101.27788804 65.06347656 101.30639648 C64.37348572 101.31472 63.68349487 101.32304352 62.97259521 101.33161926 C60.69521406 101.35568056 58.41811973 101.36448765 56.140625 101.37109375 C54.55124834 101.38006498 52.96187253 101.38918691 51.37249756 101.39845276 C48.04030305 101.41493615 44.70820892 101.42264133 41.37597656 101.42553711 C37.1211454 101.43091193 32.8672677 101.46855632 28.61270523 101.51428127 C25.32855859 101.54413654 22.04463885 101.55126253 18.76036835 101.55226326 C17.19276322 101.55645093 15.62515652 101.56882664 14.05768585 101.58978081 C-0.66765105 101.77091781 -0.66765105 101.77091781 -6.63092041 97.46473694 C-8.2039326 95.78181866 -9.0751316 94.09968372 -10 92 C-9.40832031 92.42152344 -8.81664062 92.84304687 -8.20703125 93.27734375 C-7.41683594 93.82519531 -6.62664063 94.37304688 -5.8125 94.9375 C-4.64654297 95.75541016 -4.64654297 95.75541016 -3.45703125 96.58984375 C0.91606663 99.09968212 5.26264958 99.1278172 10.22387695 99.14526367 C11.45898514 99.15164352 12.69409332 99.15802338 13.96662903 99.16459656 C15.30717937 99.16612566 16.64773024 99.16723939 17.98828125 99.16796875 C19.37444594 99.17118569 20.7606103 99.17455009 22.14677429 99.17805481 C25.04927354 99.18403217 27.95174308 99.18589619 30.85424805 99.18530273 C34.55606799 99.18520129 38.25769539 99.19884166 41.9594698 99.21607494 C44.82239134 99.22724698 47.68526713 99.22922034 50.54820824 99.22869301 C51.91202647 99.22986575 53.27584616 99.23424745 54.63964272 99.24202538 C67.07181852 99.4715602 67.07181852 99.4715602 78.3125 94.8125 C85.20641755 87.59793513 84.44520989 79.67084527 84.3984375 70.1953125 C84.40046196 68.74714003 84.40337649 67.29896857 84.40713501 65.85079956 C84.41154372 62.82312261 84.4051765 59.79571222 84.39111328 56.76806641 C84.37405268 52.90932453 84.3838515 49.05121024 84.40183067 45.19249153 C84.4127344 42.20339333 84.40919169 39.21444087 84.4014473 36.22533798 C84.39946183 34.80373941 84.40184568 33.38212711 84.40888596 31.96054459 C84.76820382 19.45080859 84.76820382 19.45080859 79.65438843 8.42630005 C74.59704459 3.91651977 69.9264004 2.75017662 63.30126953 2.74121094 C62.64854065 2.7377063 61.99581177 2.73420166 61.32330322 2.73059082 C59.17636314 2.7218251 57.02975565 2.72760557 54.8828125 2.734375 C53.38215065 2.73302654 51.88148922 2.73108449 50.38082886 2.72857666 C47.23870679 2.72563211 44.09669864 2.72990024 40.95458984 2.73925781 C36.94101921 2.7506323 32.92771669 2.74410145 28.91415596 2.73211288 C25.81535857 2.72485934 22.71662391 2.72719854 19.61782455 2.73236847 C18.13875166 2.73369634 16.65967294 2.73208769 15.18060684 2.72740936 C13.10609277 2.72228859 11.03200234 2.73013209 8.95751953 2.74121094 C7.78013214 2.74280212 6.60274475 2.74439331 5.38967896 2.74603271 C1.63048613 3.02768535 -1.42116644 3.85129844 -5 5 C-3.625 3.5 -3.625 3.5 -2 2 C-1.34 2 -0.68 2 0 2 C0 1.34 0 0.68 0 0 Z " fill="#4D5C31" transform="translate(16,0)"/>
<path d="M0 0 C0.33 0.66 0.66 1.32 1 2 C0.69720123 2.89034943 0.39440247 3.78069885 0.08242798 4.69802856 C-1.08561813 8.26118007 -1.27649372 11.09027852 -1.31884766 14.83154297 C-1.32889328 15.48590836 -1.3389389 16.14027374 -1.34928894 16.81446838 C-1.37994662 18.95703325 -1.39710683 21.0994742 -1.4140625 23.2421875 C-1.43278823 24.73577935 -1.45236269 26.22936078 -1.4727478 27.72293091 C-1.52392678 31.63877194 -1.56362827 35.55464721 -1.60089111 39.47064209 C-1.6410204 43.47270073 -1.69207188 47.47461866 -1.7421875 51.4765625 C-1.83877807 59.31761197 -1.92323635 67.15873147 -2 75 C-2.33 75 -2.66 75 -3 75 C-3.33 66.42 -3.66 57.84 -4 49 C-4.33 49 -4.66 49 -5 49 C-5.1240326 43.14680629 -5.21454361 37.29438533 -5.2746582 31.44018555 C-5.29972983 29.45079209 -5.33379622 27.4614901 -5.37719727 25.47241211 C-5.43817389 22.60507592 -5.46628323 19.73896229 -5.48828125 16.87109375 C-5.51408768 15.98852402 -5.5398941 15.10595428 -5.56648254 14.19664001 C-5.56932665 7.86805881 -4.12031991 4.81036657 0 0 Z " fill="#4A582F" transform="translate(5,10)"/>
<path d="M0 0 C0 5.28 0 10.56 0 16 C-6.6 16 -13.2 16 -20 16 C-17.78403631 12.67605446 -16.67371519 12.19401651 -13.125 10.625 C-8.97585579 8.64296277 -6.57025975 6.90679482 -4 3 C-1.20689655 0 -1.20689655 0 0 0 Z " fill="#242B17" transform="translate(103,88)"/>
<path d="M0 0 C4.95 0 9.9 0 15 0 C15 5.28 15 10.56 15 16 C12 13 12 13 10.3125 10.125 C7.73637595 6.64375128 5.34837696 5.12502389 1.609375 3.078125 C1.07828125 2.72234375 0.5471875 2.3665625 0 2 C0 1.34 0 0.68 0 0 Z " fill="#252C17" transform="translate(88,0)"/>
<path d="M0 0 C2.7885289 -0.22107787 5.34653181 -0.28107535 8.125 -0.1875 C8.87910156 -0.17396484 9.63320312 -0.16042969 10.41015625 -0.14648438 C12.27374127 -0.11109985 14.13695978 -0.05729167 16 0 C15.01 1.485 15.01 1.485 14 3 C11.2114711 3.22107787 8.65346819 3.28107535 5.875 3.1875 C5.12089844 3.17396484 4.36679688 3.16042969 3.58984375 3.14648438 C1.72625873 3.11109985 -0.13695978 3.05729167 -2 3 C-1.34 2.01 -0.68 1.02 0 0 Z " fill="#384324" transform="translate(69,101)"/>
<path d="M0 0 C2.97 0 5.94 0 9 0 C9 0.99 9 1.98 9 3 C6.03 3 3.06 3 0 3 C0 2.01 0 1.02 0 0 Z " fill="#333D21" transform="translate(19,101)"/>
<path d="M0 0 C0.66 0.33 1.32 0.66 2 1 C2 6.28 2 11.56 2 17 C1.67 17 1.34 17 1 17 C0.93941406 16.09636719 0.87882812 15.19273438 0.81640625 14.26171875 C0.73261719 13.08222656 0.64882812 11.90273438 0.5625 10.6875 C0.48128906 9.51574219 0.40007812 8.34398437 0.31640625 7.13671875 C0.1132629 3.97409042 0.1132629 3.97409042 -1 1 C-0.67 0.67 -0.34 0.34 0 0 Z " fill="#3A4525" transform="translate(101,15)"/>
</svg>
